<?xml version="1.0" encoding="UTF-8" standalone="no"?>
<!-- Created with Inkscape (http://www.inkscape.org/) -->

<svg
   width="95mm"
   height="95mm"
   viewBox="0 0 95 95"
   version="1.1"
   id="svg3645"
   inkscape:version="1.1 (ce6663b3b7, 2021-05-25)"
   sodipodi:docname="maitei-base-colored.svg"
   xmlns:inkscape="http://www.inkscape.org/namespaces/inkscape"
   xmlns:sodipodi="http://sodipodi.sourceforge.net/DTD/sodipodi-0.dtd"
   xmlns="http://www.w3.org/2000/svg"
   xmlns:svg="http://www.w3.org/2000/svg">
  <sodipodi:namedview
     id="namedview3647"
     pagecolor="#ffffff"
     bordercolor="#666666"
     borderopacity="1.0"
     inkscape:pageshadow="2"
     inkscape:pageopacity="0.0"
     inkscape:pagecheckerboard="0"
     inkscape:document-units="mm"
     showgrid="false"
     width="99mm"
     inkscape:zoom="1.0824912"
     inkscape:cx="75.289296"
     inkscape:cy="179.67814"
     inkscape:window-width="1314"
     inkscape:window-height="704"
     inkscape:window-x="52"
     inkscape:window-y="27"
     inkscape:window-maximized="1"
     inkscape:current-layer="layer1" />
  <defs
     id="defs3642" />
  <g
     inkscape:label="Layer 1"
     inkscape:groupmode="layer"
     id="layer1">
    <path
       class="st0"
       d="m 66.520548,55.192615 4.23333,-9.02229 c -5.08,-0.29104 -4.57729,4.07458 -8.49313,10.13354 -2.0902,3.25438 -6.61458,7.62 -8.89,8.14917 14.47271,0.3175 24.87084,-15.92792 23.65375,-22.225 -5.60916,-0.74083 -6.35,9.33979 -10.50395,12.96458 m -21.9075,9.02229 c 1.40229,-3.41312 3.70416,-2.03729 8.83708,-5.05354 2.32833,-1.34937 7.14375,-4.20687 6.42937,-8.28146 -1.53458,-0.10583 -3.65125,1.00542 -6.40291,1.905 -13.97,4.55084 -29.210002,6.6675 -49.4241702,-6.82624 -0.15875,10.29229 15.2664592,28.62791 31.2472902,31.53833 12.54125,1.905 27.22563,-0.84667 36.85646,-10.53042 5.34458,-5.37104 9.63083,-13.17625 11.7475,-20.98146 -8.86354,-3.0427 -5.42396,8.06979 -16.80104,15.875 -3.62479,2.51354 -17.09208,7.22313 -22.48958,2.35479 z"
       id="path4"
       style="clip-rule:evenodd;fill:#d8761e;fill-rule:evenodd;stroke-width:0.264583" />
    <path
       class="st1"
       d="m 31.860128,28.681365 -4.49792,8.89 c 5.05354,0.4498 4.70959,-3.94229 8.81063,-9.86895 2.19604,-3.175 6.85271,-7.4348 9.15458,-7.88459 -14.44625,-0.76729 -25.373541,15.18709 -24.368124,21.51063 5.556254,0.89958 6.641044,-9.15459 10.900834,-12.64709 m 22.17208,-8.38729 c -1.53458,3.36021 -3.78354,1.93146 -8.99583,4.78896 -2.38125,1.29646 -7.24958,3.99521 -6.69396,8.06979 1.50813,0.13229 3.67771,-0.89958 6.45583,-1.71979 14.1023,-4.1275 29.39521,-5.79437 49.15959,8.28146 0.47625,-10.26583 -14.34042,-29.077711 -30.21542,-32.4643769 -12.46187,-2.248958 -27.19917,0.05292 -37.1475,9.4720869 -5.503332,5.21229 -10.027707,12.88521 -12.408957,20.61104 8.757708,3.30729 5.662083,-7.91104 17.303747,-15.37229 3.70417,-2.38125 17.33021,-6.6675 22.5425,-1.66688 z"
       id="path6"
       style="clip-rule:evenodd;fill:#69ba77;fill-rule:evenodd;stroke-width:0.264583" />
    <path
       class="st2"
       d="m 13.048252,94.245115 c 1.42875,-3.01625 2.804584,-5.76791 3.995209,-8.5725 0.555625,-1.29646 0.846666,-2.69875 1.11125,-4.07458 0.846666,-4.31271 0.449791,-7.64646 -3.4925,-11.1125 -17.6477092,-15.50458 -17.3037512,-40.66646 0.264583,-56.30333 17.727084,-15.7691699 46.302084,-16.8804199 64.029164,-2.48709 18.94417,15.3723 19.92313,40.74584 2.09021,57.41459 -9.97479,9.31333 -22.01333,13.36145 -35.58646,13.12333 -2.35479,-0.0529 -4.47146,-0.18521 -6.50875,1.79917 -6.82625,6.64104 -15.372289,9.41916 -24.685622,10.29229 -0.291042,0.0265 -0.635,-0.0265 -1.217084,-0.0794 z m 37.597296,-16.06021 c 11.21833,-1.03187 21.03437,-4.81541 29.15708,-12.46187 15.90146,-14.94896 14.81667,-37.49146 -2.43417,-50.82646 -17.64771,-13.62604 -46.56666,-11.5358319 -62.071247,4.52438 -14.73729329,15.24 -13.4672933,36.30083 3.122083,49.53 9.472084,7.56708 20.558124,9.97479 32.226254,9.23395 z"
       id="path8"
       style="fill:#2b2b6b;stroke-width:0.264583" />
  </g>
</svg>
